<svg version="1.0" xmlns="http://www.w3.org/2000/svg" width="300.000000" height="300.000000" viewBox="0 0 300.000000 300.000000" preserveAspectRatio="xMidYMid meet"><rect x="0" y="0" width="100%" height="100%" fill="rgba(41, 51, 71, 1)" /><g transform="translate(0.000000,300.000000) scale(0.100000,-0.100000)" fill="#464C59" stroke="none"><path d="M1406 2063 c-24 -81 -226 -1008 -226 -1039 0 -23 10 -61 24 -87 l23 -47 -156 0 c-169 0 -181 3 -181 51 0 48 20 54 111 34 82 -17 105 -13 94 17 -4 9 -37 22 -85 33 -67 15 -83 16 -110 5 -42 -17 -60 -46 -60 -95 0 -33 6 -47 31 -71 l30 -29 252 0 c238 0 252 1 255 19 5 23 -14 36 -53 36 -64 0 -125 67 -125 136 0 29 207 965 216 973 2 2 12 -3 21 -11 38 -33 87 -50 143 -50 56 0 105 17 143 50 9 8 19 13 21 11 9 -9 216 -945 216 -977 0 -63 -62 -132 -119 -132 -32 0 -51 -11 -51 -30 0 -23 15 -28 62 -20 87 16 158 99 158 184 0 29 -204 965 -226 1039 -8 26 -37 21 -70 -14 -42 -44 -76 -59 -134 -59 -58 0 -92 15 -134 59 -33 35 -62 40 -70 14z"/><path d="M1490 1760 c0 -13 7 -20 20 -20 13 0 20 7 20 20 0 13 -7 20 -20 20 -13 0 -20 -7 -20 -20z"/><path d="M1690 1760 c0 -13 7 -20 20 -20 13 0 20 7 20 20 0 13 -7 20 -20 20 -13 0 -20 -7 -20 -20z"/><path d="M1370 1357 c0 -13 20 -124 45 -248 38 -187 49 -228 69 -247 26 -27 86 -33 112 -11 11 9 18 9 26 1 19 -19 82 -14 106 8 12 12 22 22 22 24 0 1 20 103 45 226 52 257 53 270 25 270 -23 0 -26 -8 -75 -260 -42 -218 -47 -233 -78 -228 -22 3 -22 6 -28 193 -3 105 -6 191 -7 193 -1 1 -11 2 -22 2 -11 0 -21 -1 -22 -2 -1 -2 -4 -88 -7 -193 l-6 -190 -27 -3 c-37 -4 -40 4 -83 228 -49 252 -52 260 -75 260 -14 0 -20 -7 -20 -23z"/></g><g transform="translate(0.000000,300.000000) scale(0.100000,-0.100000)" fill="#525966" stroke="none"><path d="M1260 936 c0 -2 8 -10 18 -17 15 -13 16 -12 3 4 -13 16 -21 21 -21 13z"/><path d="M1939 923 c-13 -16 -12 -17 4 -4 16 13 21 21 13 21 -2 0 -10 -8 -17 -17z"/></g><g transform="translate(0.000000,300.000000) scale(0.100000,-0.100000)" fill="#B2B8BF" stroke="none"><path d="M1470 2055 c13 -14 26 -25 28 -25 3 0 -5 11 -18 25 -13 14 -26 25 -28 25 -3 0 5 -11 18 -25z"/><path d="M1739 2053 l-24 -28 28 24 c25 23 32 31 24 31 -2 0 -14 -12 -28 -27z"/><path d="M1232 1030 c0 -14 2 -19 5 -12 2 6 2 18 0 25 -3 6 -5 1 -5 -13z"/><path d="M1982 1030 c0 -14 2 -19 5 -12 2 6 2 18 0 25 -3 6 -5 1 -5 -13z"/></g><g transform="translate(0.000000,300.000000) scale(0.100000,-0.100000)" fill="#CCD2D8" stroke="none"><path d="M1260 946 c0 -2 8 -10 18 -17 15 -13 16 -12 3 4 -13 16 -21 21 -21 13z"/></g><g transform="translate(0.000000,300.000000) scale(0.100000,-0.100000)" fill="#D2D8DF" stroke="none"><path d="M1447 1973 c-3 -10 -51 -222 -107 -472 -76 -336 -101 -465 -97 -495 8 -56 58 -102 122 -111 26 -4 49 -14 52 -21 3 -8 14 -14 25 -14 15 0 18 4 13 18 -14 36 -95 458 -93 482 4 35 44 40 58 8 5 -13 26 -106 45 -208 45 -231 52 -257 70 -264 8 -3 21 2 30 10 12 13 15 48 15 200 l0 184 30 0 30 0 0 -179 c0 -99 3 -186 6 -195 3 -9 14 -16 25 -16 22 0 25 11 74 260 20 102 40 195 45 208 14 32 54 27 58 -8 2 -24 -79 -446 -93 -482 -6 -15 -2 -18 24 -18 20 0 31 5 31 14 0 10 16 17 47 22 63 9 112 54 120 110 4 30 -22 160 -97 500 -57 252 -106 463 -110 467 -4 4 -27 -4 -51 -18 -74 -42 -189 -32 -251 22 -14 13 -17 12 -21 -4z m88 -213 c0 -18 -6 -26 -23 -28 -24 -4 -38 18 -28 44 3 9 15 14 28 12 17 -2 23 -10 23 -28z m200 0 c0 -18 -6 -26 -23 -28 -24 -4 -38 18 -28 44 3 9 15 14 28 12 17 -2 23 -10 23 -28z"/><path d="M913 973 c-21 -8 -16 -61 6 -73 11 -5 82 -10 160 -10 l140 0 -17 30 c-20 36 -84 59 -107 40 -11 -9 -31 -8 -84 4 -74 17 -79 17 -98 9z"/></g></svg>